<?xml version="1.0" encoding="UTF-8"?>
<svg id="Layer_1" xmlns="http://www.w3.org/2000/svg" version="1.1" viewBox="0 0 200 200">
  <!-- Generator: Adobe Illustrator 29.1.0, SVG Export Plug-In . SVG Version: 2.1.0 Build 142)  -->
  <defs>
    <style>
      .st0 {
        fill: #0275ff;
      }
    </style>
  </defs>
  <rect class="st0" x="62.1" width="6.9" height="6.9" rx="2" ry="2"/>
  <path class="st0" d="M193.1,0h-39.4c-1.1,0-2,.9-2,2v44.3c0,1.1.9,2,2,2h44.3c1.1,0,2-.9,2-2V2c0-1.1-.9-2-2-2h-4.9ZM193.1,13.8v25.6c0,1.1-.9,2-2,2h-30.5c-1.1,0-2-.9-2-2V8.9c0-1.1.9-2,2-2h30.5c1.1,0,2,.9,2,2v4.9Z"/>
  <path class="st0" d="M108.3,13.8c1.1,0,2-.9,2-2V2c0-1.1-.9-2-2-2h-2.9c-1.1,0-2,.9-2,2v2.9c0,1.1-.9,2-2,2h-2.9c-1.1,0-2,.9-2,2v2.9c0,1.1.9,2,2,2h9.8Z"/>
  <path class="st0" d="M137.9,13.8v-4.9c0-1.1.9-2,2-2h2.9c1.1,0,2-.9,2-2v-2.9c0-1.1-.9-2-2-2h-23.6c-1.1,0-2,.9-2,2v2.9c0,1.1.9,2,2,2h2.9c1.1,0,2,.9,2,2v2.9c0,1.1.9,2,2,2h2.9c1.1,0,2,.9,2,2v2.9c0,1.1.9,2,2,2h2.9c1.1,0,2-.9,2-2v-4.9Z"/>
  <path class="st0" d="M172.4,13.8h-4.9c-1.1,0-2,.9-2,2v16.7c0,1.1.9,2,2,2h16.7c1.1,0,2-.9,2-2V15.8c0-1.1-.9-2-2-2h-11.8Z"/>
  <rect class="st0" x="124.1" y="20.7" width="6.9" height="6.9" rx="2" ry="2"/>
  <path class="st0" d="M27.6,34.5h4.9c1.1,0,2-.9,2-2V15.8c0-1.1-.9-2-2-2H15.8c-1.1,0-2,.9-2,2v16.7c0,1.1.9,2,2,2h11.8Z"/>
  <path class="st0" d="M77.9,27.6h2.9c1.1,0,2-.9,2-2v-2.9c0-1.1-.9-2-2-2h-2.9c-1.1,0-2-.9-2-2v-2.9c0-1.1.9-2,2-2h2.9c1.1,0,2,.9,2,2v2.9c0,1.1.9,2,2,2h2.9c1.1,0,2-.9,2-2V2c0-1.1-.9-2-2-2h-2.9c-1.1,0-2,.9-2,2v2.9c0,1.1-.9,2-2,2h-9.8c-1.1,0-2,.9-2,2v2.9c0,1.1-.9,2-2,2h-9.8c-1.1,0-2,.9-2,2v2.9c0,1.1.9,2,2,2h2.9c1.1,0,2,.9,2,2v2.9c0,1.1.9,2,2,2h2.9c1.1,0,2,.9,2,2v2.9c0,1.1.9,2,2,2h2.9c1.1,0,2-.9,2-2v-2.9c0-1.1.9-2,2-2Z"/>
  <rect class="st0" x="62.1" y="34.5" width="6.9" height="6.9" rx="2" ry="2"/>
  <path class="st0" d="M13.8,48.3h32.5c1.1,0,2-.9,2-2V2c0-1.1-.9-2-2-2H2C.9,0,0,.9,0,2v44.3c0,1.1.9,2,2,2h11.8ZM6.9,34.5V8.9c0-1.1.9-2,2-2h30.5c1.1,0,2,.9,2,2v30.5c0,1.1-.9,2-2,2H8.9c-1.1,0-2-.9-2-2v-4.9Z"/>
  <path class="st0" d="M89.7,62.1v18.7c0,1.1-.9,2-2,2h-2.9c-1.1,0-2,.9-2,2v2.9c0,1.1-.9,2-2,2h-2.9c-1.1,0-2,.9-2,2v2.9c0,1.1-.9,2-2,2h-9.8c-1.1,0-2,.9-2,2v2.9c0,1.1-.9,2-2,2h-2.9c-1.1,0-2,.9-2,2v2.9c0,1.1.9,2,2,2h2.9c1.1,0,2,.9,2,2v2.9c0,1.1.9,2,2,2h2.9c1.1,0,2-.9,2-2v-2.9c0-1.1.9-2,2-2h2.9c1.1,0,2-.9,2-2v-2.9c0-1.1.9-2,2-2h2.9c1.1,0,2,.9,2,2v2.9c0,1.1-.9,2-2,2h-2.9c-1.1,0-2,.9-2,2v9.8c0,1.1.9,2,2,2h2.9c1.1,0,2-.9,2-2v-2.9c0-1.1.9-2,2-2h16.7c1.1,0,2,.9,2,2v2.9c0,1.1.9,2,2,2h2.9c1.1,0,2,.9,2,2v23.6c0,1.1.9,2,2,2h9.8c1.1,0,2-.9,2-2v-23.6c0-1.1-.9-2-2-2h-2.9c-1.1,0-2-.9-2-2v-2.9c0-1.1-.9-2-2-2h-2.9c-1.1,0-2-.9-2-2v-2.9c0-1.1-.9-2-2-2h-2.9c-1.1,0-2-.9-2-2v-9.8c0-1.1-.9-2-2-2h-9.8c-1.1,0-2-.9-2-2v-2.9c0-1.1.9-2,2-2h2.9c1.1,0,2-.9,2-2v-9.8c0-1.1.9-2,2-2h2.9c1.1,0,2-.9,2-2v-9.8c0-1.1-.9-2-2-2h-2.9c-1.1,0-2-.9-2-2v-2.9c0-1.1.9-2,2-2h9.8c1.1,0,2,.9,2,2v23.6c0,1.1-.9,2-2,2h-2.9c-1.1,0-2,.9-2,2v2.9c0,1.1.9,2,2,2h2.9c1.1,0,2,.9,2,2v2.9c0,1.1.9,2,2,2h16.7c1.1,0,2-.9,2-2v-2.9c0-1.1-.9-2-2-2h-2.9c-1.1,0-2-.9-2-2v-2.9c0-1.1.9-2,2-2h9.8c1.1,0,2,.9,2,2v16.7c0,1.1.9,2,2,2h2.9c1.1,0,2-.9,2-2v-2.9c0-1.1.9-2,2-2h9.8c1.1,0,2-.9,2-2v-9.8c0-1.1-.9-2-2-2h-9.8c-1.1,0-2-.9-2-2v-9.8c0-1.1.9-2,2-2h2.9c1.1,0,2,.9,2,2v2.9c0,1.1.9,2,2,2h2.9c1.1,0,2,.9,2,2v2.9c0,1.1.9,2,2,2h2.9c1.1,0,2-.9,2-2v-9.8c0-1.1-.9-2-2-2h-2.9c-1.1,0-2-.9-2-2v-9.8c0-1.1-.9-2-2-2h-9.8c-1.1,0-2-.9-2-2v-16.7c0-1.1-.9-2-2-2h-2.9c-1.1,0-2-.9-2-2v-2.9c0-1.1-.9-2-2-2h-2.9c-1.1,0-2,.9-2,2v9.8c0,1.1.9,2,2,2h2.9c1.1,0,2,.9,2,2v2.9c0,1.1-.9,2-2,2h-2.9c-1.1,0-2-.9-2-2v-2.9c0-1.1-.9-2-2-2h-2.9c-1.1,0-2,.9-2,2v2.9c0,1.1-.9,2-2,2h-2.9c-1.1,0-2-.9-2-2v-9.8c0-1.1-.9-2-2-2h-2.9c-1.1,0-2-.9-2-2v-2.9c0-1.1.9-2,2-2h2.9c1.1,0,2-.9,2-2v-2.9c0-1.1-.9-2-2-2h-16.7c-1.1,0-2,.9-2,2v2.9c0,1.1-.9,2-2,2h-2.9c-1.1,0-2,.9-2,2v2.9c0,1.1.9,2,2,2h2.9c1.1,0,2,.9,2,2v9.8c0,1.1-.9,2-2,2h-2.9c-1.1,0-2-.9-2-2v-2.9c0-1.1-.9-2-2-2h-2.9c-1.1,0-2,.9-2,2v9.8c0,1.1.9,2,2,2h2.9c1.1,0,2,.9,2,2v4.9ZM131,55.2h4.9c1.1,0,2,.9,2,2v16.7c0,1.1-.9,2-2,2h-9.8c-1.1,0-2-.9-2-2v-2.9c0-1.1-.9-2-2-2h-2.9c-1.1,0-2-.9-2-2v-2.9c0-1.1.9-2,2-2h2.9c1.1,0,2-.9,2-2v-2.9c0-1.1.9-2,2-2h4.9ZM105.4,41.4h2.9c1.1,0,2,.9,2,2v2.9c0,1.1-.9,2-2,2h-2.9c-1.1,0-2-.9-2-2v-2.9c0-1.1.9-2,2-2Z"/>
  <rect class="st0" x="179.3" y="55.2" width="6.9" height="6.9" rx="2" ry="2"/>
  <path class="st0" d="M20.7,60.1v-2.9c0-1.1-.9-2-2-2H2c-1.1,0-2,.9-2,2v9.8c0,1.1.9,2,2,2h2.9c1.1,0,2-.9,2-2v-2.9c0-1.1.9-2,2-2h2.9c1.1,0,2,.9,2,2v9.8c0,1.1.9,2,2,2h2.9c1.1,0,2-.9,2-2v-2.9c0-1.1.9-2,2-2h2.9c1.1,0,2-.9,2-2v-2.9c0-1.1-.9-2-2-2h-2.9c-1.1,0-2-.9-2-2Z"/>
  <path class="st0" d="M36.5,69h2.9c1.1,0,2-.9,2-2v-2.9c0-1.1.9-2,2-2h2.9c1.1,0,2,.9,2,2v2.9c0,1.1-.9,2-2,2h-2.9c-1.1,0-2,.9-2,2v2.9c0,1.1.9,2,2,2h9.8c1.1,0,2-.9,2-2v-9.8c0-1.1.9-2,2-2h2.9c1.1,0,2-.9,2-2v-2.9c0-1.1.9-2,2-2h2.9c1.1,0,2,.9,2,2v9.8c0,1.1.9,2,2,2h9.8c1.1,0,2-.9,2-2v-9.8c0-1.1-.9-2-2-2h-2.9c-1.1,0-2-.9-2-2v-9.8c0-1.1-.9-2-2-2h-2.9c-1.1,0-2,.9-2,2v2.9c0,1.1-.9,2-2,2h-2.9c-1.1,0-2-.9-2-2v-2.9c0-1.1-.9-2-2-2h-2.9c-1.1,0-2,.9-2,2v9.8c0,1.1-.9,2-2,2h-23.6c-1.1,0-2,.9-2,2v2.9c0,1.1.9,2,2,2h2.9c1.1,0,2,.9,2,2v2.9c0,1.1.9,2,2,2Z"/>
  <rect class="st0" x="172.4" y="62.1" width="6.9" height="6.9" rx="2" ry="2"/>
  <path class="st0" d="M193.1,67c0,1.1-.9,2-2,2h-9.8c-1.1,0-2,.9-2,2v2.9c0,1.1.9,2,2,2h2.9c1.1,0,2,.9,2,2v9.8c0,1.1.9,2,2,2h2.9c1.1,0,2,.9,2,2v2.9c0,1.1-.9,2-2,2h-2.9c-1.1,0-2,.9-2,2v16.7c0,1.1.9,2,2,2h2.9c1.1,0,2,.9,2,2v2.9c0,1.1-.9,2-2,2h-2.9c-1.1,0-2,.9-2,2v9.8c0,1.1.9,2,2,2h2.9c1.1,0,2-.9,2-2v-2.9c0-1.1.9-2,2-2h2.9c1.1,0,2-.9,2-2v-16.7c0-1.1-.9-2-2-2h-2.9c-1.1,0-2-.9-2-2v-2.9c0-1.1.9-2,2-2h2.9c1.1,0,2-.9,2-2v-16.7c0-1.1-.9-2-2-2h-2.9c-1.1,0-2-.9-2-2v-2.9c0-1.1.9-2,2-2h2.9c1.1,0,2-.9,2-2v-9.8c0-1.1-.9-2-2-2h-2.9c-1.1,0-2,.9-2,2v2.9Z"/>
  <rect class="st0" x="62.1" y="69" width="6.9" height="6.9" rx="2" ry="2"/>
  <rect class="st0" y="75.9" width="6.9" height="6.9" rx="2" ry="2"/>
  <rect class="st0" x="75.9" y="75.9" width="6.9" height="6.9" rx="2" ry="2"/>
  <rect class="st0" x="41.4" y="82.8" width="6.9" height="6.9" rx="2" ry="2"/>
  <path class="st0" d="M55.2,89.7v4.9c0,1.1.9,2,2,2h2.9c1.1,0,2-.9,2-2v-16.7c0-1.1-.9-2-2-2h-2.9c-1.1,0-2,.9-2,2v11.8Z"/>
  <rect class="st0" y="96.6" width="6.9" height="6.9" rx="2" ry="2"/>
  <path class="st0" d="M15.8,103.4h2.9c1.1,0,2,.9,2,2v9.8c0,1.1.9,2,2,2h2.9c1.1,0,2-.9,2-2v-2.9c0-1.1.9-2,2-2h9.8c1.1,0,2-.9,2-2v-2.9c0-1.1.9-2,2-2h2.9c1.1,0,2-.9,2-2v-2.9c0-1.1-.9-2-2-2h-2.9c-1.1,0-2-.9-2-2v-2.9c0-1.1-.9-2-2-2h-2.9c-1.1,0-2,.9-2,2v2.9c0,1.1-.9,2-2,2h-9.8c-1.1,0-2-.9-2-2v-2.9c0-1.1.9-2,2-2h9.8c1.1,0,2-.9,2-2v-2.9c0-1.1.9-2,2-2h2.9c1.1,0,2-.9,2-2v-2.9c0-1.1-.9-2-2-2h-2.9c-1.1,0-2-.9-2-2v-2.9c0-1.1-.9-2-2-2h-2.9c-1.1,0-2,.9-2,2v9.8c0,1.1-.9,2-2,2H8.9c-1.1,0-2,.9-2,2v9.8c0,1.1.9,2,2,2h2.9c1.1,0,2,.9,2,2v2.9c0,1.1.9,2,2,2Z"/>
  <rect class="st0" x="6.9" y="103.4" width="6.9" height="6.9" rx="2" ry="2"/>
  <rect class="st0" y="110.3" width="6.9" height="6.9" rx="2" ry="2"/>
  <rect class="st0" x="41.4" y="110.3" width="6.9" height="6.9" rx="2" ry="2"/>
  <path class="st0" d="M119.2,117.2h2.9c1.1,0,2-.9,2-2v-2.9c0-1.1.9-2,2-2h2.9c1.1,0,2-.9,2-2v-2.9c0-1.1-.9-2-2-2h-16.7c-1.1,0-2,.9-2,2v2.9c0,1.1.9,2,2,2h2.9c1.1,0,2,.9,2,2v2.9c0,1.1.9,2,2,2Z"/>
  <rect class="st0" x="6.9" y="117.2" width="6.9" height="6.9" rx="2" ry="2"/>
  <path class="st0" d="M48.3,119.2v2.9c0,1.1.9,2,2,2h9.8c1.1,0,2-.9,2-2v-2.9c0-1.1-.9-2-2-2h-9.8c-1.1,0-2,.9-2,2Z"/>
  <path class="st0" d="M181.3,117.2c-1.1,0-2-.9-2-2v-30.5c0-1.1-.9-2-2-2h-2.9c-1.1,0-2,.9-2,2v16.7c0,1.1-.9,2-2,2h-2.9c-1.1,0-2,.9-2,2v2.9c0,1.1.9,2,2,2h2.9c1.1,0,2,.9,2,2v9.8c0,1.1.9,2,2,2h9.8c1.1,0,2-.9,2-2v-2.9c0-1.1-.9-2-2-2h-2.9Z"/>
  <rect class="st0" y="124.1" width="6.9" height="6.9" rx="2" ry="2"/>
  <path class="st0" d="M48.3,129v-2.9c0-1.1-.9-2-2-2h-2.9c-1.1,0-2-.9-2-2v-2.9c0-1.1-.9-2-2-2h-9.8c-1.1,0-2,.9-2,2v9.8c0,1.1.9,2,2,2h2.9c1.1,0,2,.9,2,2v2.9c0,1.1.9,2,2,2h2.9c1.1,0,2-.9,2-2v-2.9c0-1.1.9-2,2-2h2.9c1.1,0,2-.9,2-2Z"/>
  <rect class="st0" x="69" y="124.1" width="6.9" height="6.9" rx="2" ry="2"/>
  <path class="st0" d="M160.6,124.1c-1.1,0-2-.9-2-2v-16.7c0-1.1-.9-2-2-2h-2.9c-1.1,0-2,.9-2,2v2.9c0,1.1-.9,2-2,2h-2.9c-1.1,0-2,.9-2,2v2.9c0,1.1-.9,2-2,2h-2.9c-1.1,0-2,.9-2,2v2.9c0,1.1.9,2,2,2h2.9c1.1,0,2,.9,2,2v2.9c0,1.1.9,2,2,2h9.8c1.1,0,2,.9,2,2v2.9c0,1.1-.9,2-2,2h-16.7c-1.1,0-2,.9-2,2v2.9c0,1.1-.9,2-2,2h-2.9c-1.1,0-2,.9-2,2v9.8c0,1.1.9,2,2,2h2.9c1.1,0,2,.9,2,2v16.7c0,1.1-.9,2-2,2h-2.9c-1.1,0-2-.9-2-2v-2.9c0-1.1-.9-2-2-2h-2.9c-1.1,0-2-.9-2-2v-9.8c0-1.1-.9-2-2-2h-9.8c-1.1,0-2,.9-2,2v2.9c0,1.1-.9,2-2,2h-2.9c-1.1,0-2,.9-2,2v2.9c0,1.1.9,2,2,2h2.9c1.1,0,2,.9,2,2v2.9c0,1.1.9,2,2,2h2.9c1.1,0,2,.9,2,2v2.9c0,1.1-.9,2-2,2h-2.9c-1.1,0-2,.9-2,2v2.9c0,1.1.9,2,2,2h16.7c1.1,0,2,.9,2,2v2.9c0,1.1.9,2,2,2h9.8c1.1,0,2-.9,2-2v-16.7c0-1.1.9-2,2-2h2.9c1.1,0,2-.9,2-2v-2.9c0-1.1.9-2,2-2h2.9c1.1,0,2,.9,2,2v9.8c0,1.1-.9,2-2,2h-2.9c-1.1,0-2,.9-2,2v2.9c0,1.1.9,2,2,2h9.8c1.1,0,2-.9,2-2v-2.9c0-1.1.9-2,2-2h9.8c1.1,0,2-.9,2-2v-2.9c0-1.1-.9-2-2-2h-2.9c-1.1,0-2-.9-2-2v-9.8c0-1.1.9-2,2-2h2.9c1.1,0,2-.9,2-2v-9.8c0-1.1-.9-2-2-2h-2.9c-1.1,0-2-.9-2-2v-9.8c0-1.1-.9-2-2-2h-2.9c-1.1,0-2-.9-2-2v-2.9c0-1.1.9-2,2-2h2.9c1.1,0,2-.9,2-2v-2.9c0-1.1-.9-2-2-2h-9.8ZM165.5,151.7v11.8c0,1.1-.9,2-2,2h-16.7c-1.1,0-2-.9-2-2v-16.7c0-1.1.9-2,2-2h16.7c1.1,0,2,.9,2,2v4.9Z"/>
  <rect class="st0" x="131" y="131" width="6.9" height="6.9" rx="2" ry="2"/>
  <rect class="st0" x="172.4" y="131" width="6.9" height="6.9" rx="2" ry="2"/>
  <rect class="st0" y="137.9" width="6.9" height="6.9" rx="2" ry="2"/>
  <path class="st0" d="M22.7,137.9c-1.1,0-2-.9-2-2v-9.8c0-1.1-.9-2-2-2h-2.9c-1.1,0-2,.9-2,2v2.9c0,1.1-.9,2-2,2h-2.9c-1.1,0-2,.9-2,2v2.9c0,1.1.9,2,2,2h2.9c1.1,0,2,.9,2,2v2.9c0,1.1.9,2,2,2h16.7c1.1,0,2-.9,2-2v-2.9c0-1.1-.9-2-2-2h-9.8Z"/>
  <path class="st0" d="M48.3,137.9h-4.9c-1.1,0-2,.9-2,2v2.9c0,1.1.9,2,2,2h9.8c1.1,0,2-.9,2-2v-2.9c0-1.1-.9-2-2-2h-4.9Z"/>
  <path class="st0" d="M34.5,151.7H2c-1.1,0-2,.9-2,2v44.3c0,1.1.9,2,2,2h44.3c1.1,0,2-.9,2-2v-44.3c0-1.1-.9-2-2-2h-11.8ZM41.4,165.5v25.6c0,1.1-.9,2-2,2H8.9c-1.1,0-2-.9-2-2v-30.5c0-1.1.9-2,2-2h30.5c1.1,0,2,.9,2,2v4.9Z"/>
  <rect class="st0" x="151.7" y="151.7" width="6.9" height="6.9" rx="2" ry="2"/>
  <path class="st0" d="M186.2,158.6v11.8c0,1.1-.9,2-2,2h-2.9c-1.1,0-2,.9-2,2v2.9c0,1.1.9,2,2,2h9.8c1.1,0,2,.9,2,2v2.9c0,1.1.9,2,2,2h2.9c1.1,0,2-.9,2-2v-9.8c0-1.1-.9-2-2-2h-2.9c-1.1,0-2-.9-2-2v-2.9c0-1.1.9-2,2-2h2.9c1.1,0,2-.9,2-2v-16.7c0-1.1-.9-2-2-2h-16.7c-1.1,0-2,.9-2,2v2.9c0,1.1.9,2,2,2h2.9c1.1,0,2,.9,2,2v4.9Z"/>
  <path class="st0" d="M20.7,165.5h-4.9c-1.1,0-2,.9-2,2v16.7c0,1.1.9,2,2,2h16.7c1.1,0,2-.9,2-2v-16.7c0-1.1-.9-2-2-2h-11.8Z"/>
  <path class="st0" d="M77.9,172.4h2.9c1.1,0,2,.9,2,2v2.9c0,1.1.9,2,2,2h2.9c1.1,0,2-.9,2-2v-2.9c0-1.1.9-2,2-2h2.9c1.1,0,2-.9,2-2v-9.8c0-1.1-.9-2-2-2h-2.9c-1.1,0-2-.9-2-2v-2.9c0-1.1.9-2,2-2h2.9c1.1,0,2,.9,2,2v2.9c0,1.1.9,2,2,2h2.9c1.1,0,2-.9,2-2v-9.8c0-1.1-.9-2-2-2h-2.9c-1.1,0-2-.9-2-2v-2.9c0-1.1.9-2,2-2h2.9c1.1,0,2-.9,2-2v-2.9c0-1.1-.9-2-2-2h-2.9c-1.1,0-2-.9-2-2v-2.9c0-1.1-.9-2-2-2h-2.9c-1.1,0-2,.9-2,2v2.9c0,1.1-.9,2-2,2h-2.9c-1.1,0-2,.9-2,2v2.9c0,1.1-.9,2-2,2h-9.8c-1.1,0-2,.9-2,2v2.9c0,1.1.9,2,2,2h9.8c1.1,0,2,.9,2,2v16.7c0,1.1-.9,2-2,2h-9.8c-1.1,0-2-.9-2-2v-2.9c0-1.1.9-2,2-2h2.9c1.1,0,2-.9,2-2v-2.9c0-1.1-.9-2-2-2h-9.8c-1.1,0-2-.9-2-2v-2.9c0-1.1-.9-2-2-2h-2.9c-1.1,0-2,.9-2,2v23.6c0,1.1.9,2,2,2h9.8c1.1,0,2,.9,2,2v9.8c0,1.1.9,2,2,2h2.9c1.1,0,2-.9,2-2v-9.8c0-1.1.9-2,2-2Z"/>
  <path class="st0" d="M55.2,186.2v11.8c0,1.1.9,2,2,2h2.9c1.1,0,2-.9,2-2v-16.7c0-1.1-.9-2-2-2h-2.9c-1.1,0-2,.9-2,2v4.9Z"/>
  <path class="st0" d="M101.4,179.3h-2.9c-1.1,0-2,.9-2,2v2.9c0,1.1-.9,2-2,2h-2.9c-1.1,0-2,.9-2,2v2.9c0,1.1-.9,2-2,2h-2.9c-1.1,0-2,.9-2,2v2.9c0,1.1.9,2,2,2h9.8c1.1,0,2-.9,2-2v-2.9c0-1.1.9-2,2-2h2.9c1.1,0,2-.9,2-2v-9.8c0-1.1-.9-2-2-2Z"/>
  <rect class="st0" x="75.9" y="186.2" width="6.9" height="6.9" rx="2" ry="2"/>
  <path class="st0" d="M186.2,193.1v4.9c0,1.1.9,2,2,2h9.8c1.1,0,2-.9,2-2v-2.9c0-1.1-.9-2-2-2h-2.9c-1.1,0-2-.9-2-2v-2.9c0-1.1-.9-2-2-2h-2.9c-1.1,0-2,.9-2,2v4.9Z"/>
  <rect class="st0" x="69" y="193.1" width="6.9" height="6.9" rx="2" ry="2"/>
  <rect class="st0" x="103.4" y="193.1" width="6.9" height="6.9" rx="2" ry="2"/>
  <path class="st0" d="M172.4,200h4.9c1.1,0,2-.9,2-2v-2.9c0-1.1-.9-2-2-2h-9.8c-1.1,0-2,.9-2,2v2.9c0,1.1.9,2,2,2h4.9Z"/>
</svg>