<?xml version="1.0" encoding="utf-8"?>
<!-- Generator: Adobe Illustrator 27.7.0, SVG Export Plug-In . SVG Version: 6.00 Build 0)  -->
<svg version="1.1" id="Layer_1" xmlns="http://www.w3.org/2000/svg" xmlns:xlink="http://www.w3.org/1999/xlink" x="0px" y="0px"
	 viewBox="0 0 200 200" style="enable-background:new 0 0 200 200;" xml:space="preserve">
<style type="text/css">
	.st0{fill:#0275FF;}
</style>
<g>
	<g transform="translate(0.000000,200.000000) scale(0.026882,-0.026882)">
		<path class="st0" d="M0,6398.3v-967.2c0-41.1,33.3-74.4,74.4-74.4h967.2h967.2c41.1,0,74.4,33.3,74.4,74.4v967.2v967.2
			c0,41.1-33.3,74.4-74.4,74.4h-967.2H74.4c-41.1,0-74.4-33.3-74.4-74.4V6398.3z M1785.6,6398.3v-669.6c0-41.1-33.3-74.4-74.4-74.4
			h-669.6H372c-41.1,0-74.4,33.3-74.4,74.4v669.6v669.6c0,41.1,33.3,74.4,74.4,74.4h669.6h669.6c41.1,0,74.4-33.3,74.4-74.4V6398.3z
			"/>
		<path class="st0" d="M595.2,6398.3v-372c0-41.1,33.3-74.4,74.4-74.4h372h372c41.1,0,74.4,33.3,74.4,74.4v372v372
			c0,41.1-33.3,74.4-74.4,74.4h-372h-372c-41.1,0-74.4-33.3-74.4-74.4V6398.3z"/>
		<path class="st0" d="M2678.4,7291.1v-74.4c0-41.1,33.3-74.4,74.4-74.4h74.4h74.4c41.1,0,74.4-33.3,74.4-74.4v-74.4v-74.4
			c0-41.1-33.3-74.4-74.4-74.4h-223.2h-223.2c-41.1,0-74.4-33.3-74.4-74.4v-74.4v-74.4c0-41.1,33.3-74.4,74.4-74.4h74.4h74.4
			c41.1,0,74.4-33.3,74.4-74.4v-74.4v-74.4c0-41.1,33.3-74.4,74.4-74.4h74.4h74.4c41.1,0,74.4-33.3,74.4-74.4v-74.4v-74.4
			c0-41.1-33.3-74.4-74.4-74.4h-74.4h-74.4c-41.1,0-74.4-33.3-74.4-74.4v-74.4v-74.4c0-41.1-33.3-74.4-74.4-74.4h-74.4h-74.4
			c-41.1,0-74.4-33.3-74.4-74.4v-223.2v-223.2c0-41.1-33.3-74.4-74.4-74.4h-520.8h-520.8c-41.1,0-74.4-33.3-74.4-74.4v-223.2v-223.2
			c0-41.1-33.3-74.4-74.4-74.4h-74.4h-74.4c-41.1,0-74.4-33.3-74.4-74.4v-74.4v-74.4c0-41.1-33.3-74.4-74.4-74.4H744h-74.4
			c-41.1,0-74.4,33.3-74.4,74.4V4464v223.2c0,41.1,33.3,74.4,74.4,74.4H744h74.4c41.1,0,74.4,33.3,74.4,74.4v74.4v74.4
			c0,41.1-33.3,74.4-74.4,74.4h-372h-372c-41.1,0-74.4-33.3-74.4-74.4V4464v-520.8c0-41.1,33.3-74.4,74.4-74.4h74.4h74.4
			c41.1,0,74.4,33.3,74.4,74.4v74.4v74.4c0,41.1,33.3,74.4,74.4,74.4h74.4h74.4c41.1,0,74.4-33.3,74.4-74.4v-223.2v-223.2
			c0-41.1-33.3-74.4-74.4-74.4h-74.4H372c-41.1,0-74.4-33.3-74.4-74.4v-74.4V3348c0-41.1-33.3-74.4-74.4-74.4h-74.4H74.4
			c-41.1,0-74.4-33.3-74.4-74.4v-74.4v-74.4c0-41.1,33.3-74.4,74.4-74.4h74.4h74.4c41.1,0,74.4-33.3,74.4-74.4v-74.4v-74.4
			c0-41.1-33.3-74.4-74.4-74.4h-74.4H74.4c-41.1,0-74.4-33.3-74.4-74.4v-74.4v-74.4c0-41.1,33.3-74.4,74.4-74.4h74.4h74.4
			c41.1,0,74.4,33.3,74.4,74.4v74.4v74.4c0,41.1,33.3,74.4,74.4,74.4h74.4h74.4c41.1,0,74.4,33.3,74.4,74.4v74.4v74.4
			c0,41.1-33.3,74.4-74.4,74.4h-74.4H372c-41.1,0-74.4,33.3-74.4,74.4v74.4v74.4c0,41.1,33.3,74.4,74.4,74.4h372h372
			c41.1,0,74.4-33.3,74.4-74.4v-74.4v-74.4c0-41.1,33.3-74.4,74.4-74.4h372h372c41.1,0,74.4,33.3,74.4,74.4v74.4v74.4
			c0,41.1,33.3,74.4,74.4,74.4h74.4h74.4c41.1,0,74.4,33.3,74.4,74.4v74.4v74.4c0,41.1-33.3,74.4-74.4,74.4H2232h-74.4
			c-41.1,0-74.4,33.3-74.4,74.4v74.4v74.4c0,41.1,33.3,74.4,74.4,74.4h223.2H2604c41.1,0,74.4,33.3,74.4,74.4v74.4v74.4
			c0,41.1,33.3,74.4,74.4,74.4h74.4h74.4c41.1,0,74.4,33.3,74.4,74.4v74.4v74.4c0,41.1,33.3,74.4,74.4,74.4h223.2h223.2
			c41.1,0,74.4,33.3,74.4,74.4v223.2v223.2c0,41.1,33.3,74.4,74.4,74.4h74.4h74.4c41.1,0,74.4-33.3,74.4-74.4v-74.4v-74.4
			c0-41.1,33.3-74.4,74.4-74.4h372h372c41.1,0,74.4-33.3,74.4-74.4V4464v-223.2c0-41.1,33.3-74.4,74.4-74.4h74.4h74.4
			c41.1,0,74.4-33.3,74.4-74.4v-223.2v-223.2c0-41.1-33.3-74.4-74.4-74.4h-74.4h-74.4c-41.1,0-74.4-33.3-74.4-74.4v-74.4V3348
			c0-41.1,33.3-74.4,74.4-74.4h74.4h74.4c41.1,0,74.4-33.3,74.4-74.4v-74.4v-74.4c0-41.1-33.3-74.4-74.4-74.4h-223.2h-223.2
			c-41.1,0-74.4-33.3-74.4-74.4v-74.4v-74.4c0-41.1,33.3-74.4,74.4-74.4h74.4h74.4c41.1,0,74.4-33.3,74.4-74.4v-223.2v-223.2
			c0-41.1-33.3-74.4-74.4-74.4h-74.4h-74.4c-41.1,0-74.4,33.3-74.4,74.4v74.4v74.4c0,41.1-33.3,74.4-74.4,74.4h-74.4h-74.4
			c-41.1,0-74.4,33.3-74.4,74.4v223.2v223.2c0,41.1-33.3,74.4-74.4,74.4h-74.4h-74.4c-41.1,0-74.4,33.3-74.4,74.4v223.2v223.2
			c0,41.1,33.3,74.4,74.4,74.4h74.4h74.4c41.1,0,74.4,33.3,74.4,74.4v74.4v74.4c0,41.1,33.3,74.4,74.4,74.4h74.4h74.4
			c41.1,0,74.4,33.3,74.4,74.4v74.4v74.4c0,41.1-33.3,74.4-74.4,74.4h-74.4h-74.4c-41.1,0-74.4,33.3-74.4,74.4v74.4v74.4
			c0,41.1-33.3,74.4-74.4,74.4h-74.4h-74.4c-41.1,0-74.4-33.3-74.4-74.4v-223.2v-223.2c0-41.1-33.3-74.4-74.4-74.4H3720h-74.4
			c-41.1,0-74.4,33.3-74.4,74.4v74.4v74.4c0,41.1-33.3,74.4-74.4,74.4h-74.4H3348c-41.1,0-74.4-33.3-74.4-74.4v-74.4v-74.4
			c0-41.1,33.3-74.4,74.4-74.4h74.4h74.4c41.1,0,74.4-33.3,74.4-74.4V3720v-74.4c0-41.1-33.3-74.4-74.4-74.4h-74.4H3348
			c-41.1,0-74.4-33.3-74.4-74.4v-74.4V3348c0-41.1-33.3-74.4-74.4-74.4H2976h-223.2c-41.1,0-74.4-33.3-74.4-74.4v-74.4v-74.4
			c0-41.1,33.3-74.4,74.4-74.4h74.4h74.4c41.1,0,74.4-33.3,74.4-74.4v-74.4v-74.4c0-41.1,33.3-74.4,74.4-74.4h74.4h74.4
			c41.1,0,74.4-33.3,74.4-74.4v-223.2v-223.2c0-41.1-33.3-74.4-74.4-74.4h-74.4h-74.4c-41.1,0-74.4-33.3-74.4-74.4v-74.4V1860
			c0-41.1-33.3-74.4-74.4-74.4h-74.4h-74.4c-41.1,0-74.4,33.3-74.4,74.4v223.2v223.2c0,41.1-33.3,74.4-74.4,74.4h-74.4h-74.4
			c-41.1,0-74.4,33.3-74.4,74.4v74.4v74.4c0,41.1-33.3,74.4-74.4,74.4h-669.6H967.2c-41.1,0-74.4-33.3-74.4-74.4v-74.4v-74.4
			c0-41.1,33.3-74.4,74.4-74.4h669.6h669.6c41.1,0,74.4-33.3,74.4-74.4v-520.8v-520.8c0-41.1,33.3-74.4,74.4-74.4h74.4h74.4
			c41.1,0,74.4-33.3,74.4-74.4v-74.4v-74.4c0-41.1-33.3-74.4-74.4-74.4h-74.4h-74.4c-41.1,0-74.4-33.3-74.4-74.4v-372v-372
			c0-41.1,33.3-74.4,74.4-74.4h74.4h74.4c41.1,0,74.4,33.3,74.4,74.4v74.4v74.4c0,41.1,33.3,74.4,74.4,74.4H2976h223.2
			c41.1,0,74.4,33.3,74.4,74.4v74.4v74.4c0,41.1-33.3,74.4-74.4,74.4H2976h-223.2c-41.1,0-74.4,33.3-74.4,74.4V744v74.4
			c0,41.1,33.3,74.4,74.4,74.4h74.4h74.4c41.1,0,74.4,33.3,74.4,74.4v74.4v74.4c0,41.1-33.3,74.4-74.4,74.4h-74.4h-74.4
			c-41.1,0-74.4,33.3-74.4,74.4v74.4v74.4c0,41.1,33.3,74.4,74.4,74.4H2976h223.2c41.1,0,74.4-33.3,74.4-74.4v-74.4v-74.4
			c0-41.1,33.3-74.4,74.4-74.4h74.4h74.4c41.1,0,74.4-33.3,74.4-74.4v-74.4v-74.4c0-41.1,33.3-74.4,74.4-74.4h74.4h74.4
			c41.1,0,74.4-33.3,74.4-74.4V744v-74.4c0-41.1-33.3-74.4-74.4-74.4H3720h-74.4c-41.1,0-74.4-33.3-74.4-74.4V297.6V74.4
			c0-41.1,33.3-74.4,74.4-74.4h223.2H4092c41.1,0,74.4,33.3,74.4,74.4v223.2v223.2c0,41.1,33.3,74.4,74.4,74.4H4464h223.2
			c41.1,0,74.4-33.3,74.4-74.4v-74.4V372c0-41.1-33.3-74.4-74.4-74.4h-74.4h-74.4c-41.1,0-74.4-33.3-74.4-74.4v-74.4V74.4
			c0-41.1,33.3-74.4,74.4-74.4h223.2h223.2c41.1,0,74.4,33.3,74.4,74.4v74.4v74.4c0,41.1,33.3,74.4,74.4,74.4h74.4h74.4
			c41.1,0,74.4,33.3,74.4,74.4v223.2v223.2c0,41.1-33.3,74.4-74.4,74.4h-223.2h-223.2c-41.1,0-74.4,33.3-74.4,74.4v74.4v74.4
			c0,41.1,33.3,74.4,74.4,74.4h372h372c41.1,0,74.4-33.3,74.4-74.4v-74.4v-74.4c0-41.1,33.3-74.4,74.4-74.4h74.4h74.4
			c41.1,0,74.4-33.3,74.4-74.4V595.2V372c0-41.1-33.3-74.4-74.4-74.4h-74.4h-74.4c-41.1,0-74.4-33.3-74.4-74.4v-74.4V74.4
			c0-41.1,33.3-74.4,74.4-74.4h74.4h74.4c41.1,0,74.4,33.3,74.4,74.4v74.4v74.4c0,41.1,33.3,74.4,74.4,74.4h223.2h223.2
			c41.1,0,74.4,33.3,74.4,74.4v74.4v74.4c0,41.1-33.3,74.4-74.4,74.4h-74.4h-74.4c-41.1,0-74.4,33.3-74.4,74.4V744v74.4
			c0,41.1,33.3,74.4,74.4,74.4h223.2h223.2c41.1,0,74.4,33.3,74.4,74.4v74.4v74.4c0,41.1-33.3,74.4-74.4,74.4h-74.4h-74.4
			c-41.1,0-74.4,33.3-74.4,74.4v669.6V2604c0,41.1-33.3,74.4-74.4,74.4h-74.4h-74.4c-41.1,0-74.4,33.3-74.4,74.4v74.4v74.4
			c0,41.1-33.3,74.4-74.4,74.4h-74.4h-74.4c-41.1,0-74.4,33.3-74.4,74.4v74.4v74.4c0,41.1-33.3,74.4-74.4,74.4h-74.4h-74.4
			c-41.1,0-74.4,33.3-74.4,74.4v74.4v74.4c0,41.1,33.3,74.4,74.4,74.4h74.4h74.4c41.1,0,74.4,33.3,74.4,74.4v372v372
			c0,41.1-33.3,74.4-74.4,74.4h-74.4h-74.4c-41.1,0-74.4,33.3-74.4,74.4v223.2v223.2c0,41.1-33.3,74.4-74.4,74.4h-223.2h-223.2
			c-41.1,0-74.4,33.3-74.4,74.4v223.2v223.2c0,41.1-33.3,74.4-74.4,74.4h-74.4h-74.4c-41.1,0-74.4,33.3-74.4,74.4v74.4v74.4
			c0,41.1,33.3,74.4,74.4,74.4h74.4h74.4c41.1,0,74.4,33.3,74.4,74.4v74.4v74.4c0,41.1-33.3,74.4-74.4,74.4h-223.2h-223.2
			c-41.1,0-74.4,33.3-74.4,74.4v74.4v74.4c0,41.1,33.3,74.4,74.4,74.4h74.4h74.4c41.1,0,74.4,33.3,74.4,74.4v372v372
			c0,41.1-33.3,74.4-74.4,74.4H4464h-223.2c-41.1,0-74.4-33.3-74.4-74.4v-74.4v-74.4c0-41.1-33.3-74.4-74.4-74.4h-74.4h-74.4
			c-41.1,0-74.4,33.3-74.4,74.4v74.4v74.4c0,41.1-33.3,74.4-74.4,74.4H3720h-74.4c-41.1,0-74.4-33.3-74.4-74.4v-74.4v-74.4
			c0-41.1-33.3-74.4-74.4-74.4h-223.2h-223.2c-41.1,0-74.4,33.3-74.4,74.4v74.4v74.4c0,41.1-33.3,74.4-74.4,74.4h-74.4h-74.4
			c-41.1,0-74.4-33.3-74.4-74.4V7291.1z M4464,6844.7v-223.2c0-41.1-33.3-74.4-74.4-74.4h-74.4h-74.4c-41.1,0-74.4-33.3-74.4-74.4
			v-74.4v-74.4c0-41.1,33.3-74.4,74.4-74.4h74.4h74.4c41.1,0,74.4-33.3,74.4-74.4v-74.4v-74.4c0-41.1-33.3-74.4-74.4-74.4h-223.2
			h-223.2c-41.1,0-74.4-33.3-74.4-74.4v-74.4v-74.4c0-41.1,33.3-74.4,74.4-74.4h74.4h74.4c41.1,0,74.4-33.3,74.4-74.4v-74.4v-74.4
			c0-41.1,33.3-74.4,74.4-74.4h74.4h74.4c41.1,0,74.4,33.3,74.4,74.4v74.4v74.4c0,41.1,33.3,74.4,74.4,74.4h74.4h74.4
			c41.1,0,74.4-33.3,74.4-74.4v-74.4v-74.4c0-41.1-33.3-74.4-74.4-74.4h-74.4h-74.4c-41.1,0-74.4-33.3-74.4-74.4v-74.4v-74.4
			c0-41.1-33.3-74.4-74.4-74.4h-74.4h-74.4c-41.1,0-74.4,33.3-74.4,74.4v74.4v74.4c0,41.1-33.3,74.4-74.4,74.4h-74.4h-74.4
			c-41.1,0-74.4,33.3-74.4,74.4v74.4v74.4c0,41.1-33.3,74.4-74.4,74.4H3720h-74.4c-41.1,0-74.4-33.3-74.4-74.4v-223.2v-223.2
			c0-41.1-33.3-74.4-74.4-74.4h-74.4H3348c-41.1,0-74.4,33.3-74.4,74.4v223.2v223.2c0,41.1-33.3,74.4-74.4,74.4h-74.4h-74.4
			c-41.1,0-74.4-33.3-74.4-74.4v-74.4v-74.4c0-41.1-33.3-74.4-74.4-74.4h-74.4h-74.4c-41.1,0-74.4,33.3-74.4,74.4v74.4v74.4
			c0,41.1,33.3,74.4,74.4,74.4h74.4h74.4c41.1,0,74.4,33.3,74.4,74.4v74.4v74.4c0,41.1,33.3,74.4,74.4,74.4h74.4h74.4
			c41.1,0,74.4,33.3,74.4,74.4v74.4v74.4c0,41.1,33.3,74.4,74.4,74.4h74.4h74.4c41.1,0,74.4,33.3,74.4,74.4v74.4v74.4
			c0,41.1-33.3,74.4-74.4,74.4h-74.4H3348c-41.1,0-74.4,33.3-74.4,74.4v74.4v74.4c0,41.1,33.3,74.4,74.4,74.4h74.4h74.4
			c41.1,0,74.4-33.3,74.4-74.4v-74.4v-74.4c0-41.1,33.3-74.4,74.4-74.4h74.4h74.4c41.1,0,74.4,33.3,74.4,74.4v74.4v74.4
			c0,41.1,33.3,74.4,74.4,74.4h74.4h74.4c41.1,0,74.4,33.3,74.4,74.4v74.4v74.4c0,41.1,33.3,74.4,74.4,74.4h74.4h74.4
			c41.1,0,74.4-33.3,74.4-74.4V6844.7z M2976,4761.6v-223.2c0-41.1-33.3-74.4-74.4-74.4h-520.8H1860c-41.1,0-74.4,33.3-74.4,74.4
			v74.4v74.4c0,41.1,33.3,74.4,74.4,74.4h372h372c41.1,0,74.4,33.3,74.4,74.4v74.4v74.4c0,41.1,33.3,74.4,74.4,74.4h74.4h74.4
			c41.1,0,74.4-33.3,74.4-74.4V4761.6z M1488,4315.2v-74.4c0-41.1,33.3-74.4,74.4-74.4h223.2h223.2c41.1,0,74.4-33.3,74.4-74.4
			v-74.4v-74.4c0-41.1-33.3-74.4-74.4-74.4h-223.2h-223.2c-41.1,0-74.4,33.3-74.4,74.4v74.4v74.4c0,41.1-33.3,74.4-74.4,74.4h-74.4
			h-74.4c-41.1,0-74.4-33.3-74.4-74.4v-74.4v-74.4c0-41.1-33.3-74.4-74.4-74.4h-74.4h-74.4c-41.1,0-74.4,33.3-74.4,74.4v74.4v74.4
			c0,41.1,33.3,74.4,74.4,74.4h74.4h74.4c41.1,0,74.4,33.3,74.4,74.4v74.4v74.4c0,41.1,33.3,74.4,74.4,74.4h74.4h74.4
			c41.1,0,74.4-33.3,74.4-74.4V4315.2z M5654.3,4166.4v-223.2c0-41.1-33.3-74.4-74.4-74.4h-74.4h-74.4c-41.1,0-74.4,33.3-74.4,74.4
			v74.4v74.4c0,41.1-33.3,74.4-74.4,74.4h-74.4h-74.4c-41.1,0-74.4,33.3-74.4,74.4v74.4v74.4c0,41.1,33.3,74.4,74.4,74.4h223.2
			h223.2c41.1,0,74.4-33.3,74.4-74.4V4166.4z M2083.2,3422.4V3348c0-41.1-33.3-74.4-74.4-74.4h-372h-372
			c-41.1,0-74.4,33.3-74.4,74.4v74.4v74.4c0,41.1,33.3,74.4,74.4,74.4h372h372c41.1,0,74.4-33.3,74.4-74.4V3422.4z M5654.3,3124.8
			v-74.4c0-41.1,33.3-74.4,74.4-74.4h74.4h74.4c41.1,0,74.4-33.3,74.4-74.4v-74.4v-74.4c0-41.1-33.3-74.4-74.4-74.4h-74.4h-74.4
			c-41.1,0-74.4,33.3-74.4,74.4v74.4v74.4c0,41.1-33.3,74.4-74.4,74.4h-74.4h-74.4c-41.1,0-74.4-33.3-74.4-74.4v-74.4v-74.4
			c0-41.1-33.3-74.4-74.4-74.4h-74.4h-74.4c-41.1,0-74.4,33.3-74.4,74.4v74.4v74.4c0,41.1,33.3,74.4,74.4,74.4h74.4h74.4
			c41.1,0,74.4,33.3,74.4,74.4v74.4v74.4c0,41.1,33.3,74.4,74.4,74.4h74.4h74.4c41.1,0,74.4-33.3,74.4-74.4V3124.8z M3571.2,2827.2
			v-74.4c0-41.1-33.3-74.4-74.4-74.4h-74.4H3348c-41.1,0-74.4,33.3-74.4,74.4v74.4v74.4c0,41.1,33.3,74.4,74.4,74.4h74.4h74.4
			c41.1,0,74.4-33.3,74.4-74.4V2827.2z M3868.8,2083.2V1860c0-41.1-33.3-74.4-74.4-74.4H3720h-74.4c-41.1,0-74.4-33.3-74.4-74.4
			v-74.4v-74.4c0-41.1-33.3-74.4-74.4-74.4h-74.4H3348c-41.1,0-74.4,33.3-74.4,74.4v223.2v223.2c0,41.1,33.3,74.4,74.4,74.4h74.4
			h74.4c41.1,0,74.4,33.3,74.4,74.4v74.4v74.4c0,41.1,33.3,74.4,74.4,74.4h74.4h74.4c41.1,0,74.4-33.3,74.4-74.4V2083.2z
			 M5951.9,1934.4v-372c0-41.1-33.3-74.4-74.4-74.4h-372h-372c-41.1,0-74.4,33.3-74.4,74.4v372v372c0,41.1,33.3,74.4,74.4,74.4h372
			h372c41.1,0,74.4-33.3,74.4-74.4V1934.4z M4761.6,1488v-223.2c0-41.1-33.3-74.4-74.4-74.4H4464h-223.2
			c-41.1,0-74.4,33.3-74.4,74.4V1488v223.2c0,41.1,33.3,74.4,74.4,74.4H4464h223.2c41.1,0,74.4-33.3,74.4-74.4V1488z"/>
		<path class="st0" d="M5356.7,1934.4V1860c0-41.1,33.3-74.4,74.4-74.4h74.4h74.4c41.1,0,74.4,33.3,74.4,74.4v74.4v74.4
			c0,41.1-33.3,74.4-74.4,74.4h-74.4h-74.4c-41.1,0-74.4-33.3-74.4-74.4V1934.4z"/>
		<path class="st0" d="M5356.7,6398.3v-967.2c0-41.1,33.3-74.4,74.4-74.4h967.2h967.2c41.1,0,74.4,33.3,74.4,74.4v967.2v967.2
			c0,41.1-33.3,74.4-74.4,74.4h-967.2h-967.2c-41.1,0-74.4-33.3-74.4-74.4V6398.3z M7142.3,6398.3v-669.6
			c0-41.1-33.3-74.4-74.4-74.4h-669.6h-669.6c-41.1,0-74.4,33.3-74.4,74.4v669.6v669.6c0,41.1,33.3,74.4,74.4,74.4h669.6h669.6
			c41.1,0,74.4-33.3,74.4-74.4V6398.3z"/>
		<path class="st0" d="M5951.9,6398.3v-372c0-41.1,33.3-74.4,74.4-74.4h372h372c41.1,0,74.4,33.3,74.4,74.4v372v372
			c0,41.1-33.3,74.4-74.4,74.4h-372h-372c-41.1,0-74.4-33.3-74.4-74.4V6398.3z"/>
		<path class="st0" d="M6547.1,4910.3v-74.4c0-41.1,33.3-74.4,74.4-74.4h74.4h74.4c41.1,0,74.4,33.3,74.4,74.4v74.4v74.4
			c0,41.1-33.3,74.4-74.4,74.4h-74.4h-74.4c-41.1,0-74.4-33.3-74.4-74.4V4910.3z"/>
		<path class="st0" d="M7142.3,4612.8v-74.4c0-41.1-33.3-74.4-74.4-74.4h-223.2h-223.2c-41.1,0-74.4-33.3-74.4-74.4v-74.4v-74.4
			c0-41.1,33.3-74.4,74.4-74.4h74.4h74.4c41.1,0,74.4-33.3,74.4-74.4v-223.2v-223.2c0-41.1,33.3-74.4,74.4-74.4h74.4h74.4
			c41.1,0,74.4-33.3,74.4-74.4v-74.4V3348c0-41.1-33.3-74.4-74.4-74.4h-223.2h-223.2c-41.1,0-74.4,33.3-74.4,74.4v223.2v223.2
			c0,41.1-33.3,74.4-74.4,74.4h-74.4h-74.4c-41.1,0-74.4-33.3-74.4-74.4v-223.2V3348c0-41.1,33.3-74.4,74.4-74.4h74.4h74.4
			c41.1,0,74.4-33.3,74.4-74.4v-74.4v-74.4c0-41.1,33.3-74.4,74.4-74.4h74.4h74.4c41.1,0,74.4-33.3,74.4-74.4v-74.4v-74.4
			c0-41.1,33.3-74.4,74.4-74.4h74.4h74.4c41.1,0,74.4,33.3,74.4,74.4v74.4v74.4c0,41.1,33.3,74.4,74.4,74.4h74.4h74.4
			c41.1,0,74.4,33.3,74.4,74.4v372v372c0,41.1-33.3,74.4-74.4,74.4h-74.4h-74.4c-41.1,0-74.4,33.3-74.4,74.4v74.4v74.4
			c0,41.1,33.3,74.4,74.4,74.4h74.4h74.4c41.1,0,74.4,33.3,74.4,74.4V4464v223.2c0,41.1-33.3,74.4-74.4,74.4h-74.4h-74.4
			c-41.1,0-74.4-33.3-74.4-74.4V4612.8z"/>
		<path class="st0" d="M6844.7,2083.2V1860c0-41.1,33.3-74.4,74.4-74.4h223.2h223.2c41.1,0,74.4,33.3,74.4,74.4v223.2v223.2
			c0,41.1-33.3,74.4-74.4,74.4h-223.2h-223.2c-41.1,0-74.4-33.3-74.4-74.4V2083.2z"/>
		<path class="st0" d="M0,1041.6V74.4C0,33.3,33.3,0,74.4,0h967.2h967.2c41.1,0,74.4,33.3,74.4,74.4v967.2v967.2
			c0,41.1-33.3,74.4-74.4,74.4h-967.2H74.4c-41.1,0-74.4-33.3-74.4-74.4V1041.6z M1785.6,1041.6V372c0-41.1-33.3-74.4-74.4-74.4
			h-669.6H372c-41.1,0-74.4,33.3-74.4,74.4v669.6v669.6c0,41.1,33.3,74.4,74.4,74.4h669.6h669.6c41.1,0,74.4-33.3,74.4-74.4V1041.6z
			"/>
		<path class="st0" d="M595.2,1041.6v-372c0-41.1,33.3-74.4,74.4-74.4h372h372c41.1,0,74.4,33.3,74.4,74.4v372v372
			c0,41.1-33.3,74.4-74.4,74.4h-372h-372c-41.1,0-74.4-33.3-74.4-74.4V1041.6z"/>
		<path class="st0" d="M7142.3,744v-74.4c0-41.1-33.3-74.4-74.4-74.4h-74.4h-74.4c-41.1,0-74.4-33.3-74.4-74.4V297.6V74.4
			c0-41.1,33.3-74.4,74.4-74.4h223.2h223.2c41.1,0,74.4,33.3,74.4,74.4v74.4v74.4c0,41.1-33.3,74.4-74.4,74.4h-74.4h-74.4
			c-41.1,0-74.4,33.3-74.4,74.4v74.4v74.4c0,41.1,33.3,74.4,74.4,74.4h74.4h74.4c41.1,0,74.4,33.3,74.4,74.4V744v74.4
			c0,41.1-33.3,74.4-74.4,74.4h-74.4h-74.4c-41.1,0-74.4-33.3-74.4-74.4V744z"/>
	</g>
</g>
</svg>
