<?xml version="1.0" encoding="UTF-8"?>
<svg id="Layer_1" xmlns="http://www.w3.org/2000/svg" version="1.1" viewBox="0 0 200 200">
  <!-- Generator: Adobe Illustrator 29.1.0, SVG Export Plug-In . SVG Version: 2.1.0 Build 142)  -->
  <defs>
    <style>
      .st0 {
        fill: #464646;
      }
    </style>
  </defs>
  <path class="st0" d="M89.7,4.9v-2.9c0-1.1-.9-2-2-2h-9.8c-1.1,0-2,.9-2,2v2.9c0,1.1-.9,2-2,2h-2.9c-1.1,0-2-.9-2-2v-2.9c0-1.1-.9-2-2-2h-2.9c-1.1,0-2,.9-2,2v9.8c0,1.1.9,2,2,2h16.7c1.1,0,2-.9,2-2v-2.9c0-1.1.9-2,2-2h2.9c1.1,0,2-.9,2-2Z"/>
  <rect class="st0" x="96.6" width="6.9" height="6.9" rx="2" ry="2"/>
  <path class="st0" d="M193.1,0h-39.4c-1.1,0-2,.9-2,2v44.3c0,1.1.9,2,2,2h44.3c1.1,0,2-.9,2-2V2c0-1.1-.9-2-2-2h-4.9ZM193.1,13.8v25.6c0,1.1-.9,2-2,2h-30.5c-1.1,0-2-.9-2-2V8.9c0-1.1.9-2,2-2h30.5c1.1,0,2,.9,2,2v4.9Z"/>
  <rect class="st0" x="55.2" y="13.8" width="6.9" height="6.9" rx="2" ry="2"/>
  <path class="st0" d="M137.9,13.8V2c0-1.1-.9-2-2-2h-9.8c-1.1,0-2,.9-2,2v2.9c0,1.1.9,2,2,2h2.9c1.1,0,2,.9,2,2v9.8c0,1.1.9,2,2,2h2.9c1.1,0,2-.9,2-2v-4.9Z"/>
  <path class="st0" d="M172.4,13.8h-4.9c-1.1,0-2,.9-2,2v16.7c0,1.1.9,2,2,2h16.7c1.1,0,2-.9,2-2V15.8c0-1.1-.9-2-2-2h-11.8Z"/>
  <path class="st0" d="M89.7,20.7v-4.9c0-1.1-.9-2-2-2h-2.9c-1.1,0-2,.9-2,2v9.8c0,1.1.9,2,2,2h2.9c1.1,0,2-.9,2-2v-4.9Z"/>
  <path class="st0" d="M27.6,34.5h4.9c1.1,0,2-.9,2-2V15.8c0-1.1-.9-2-2-2H15.8c-1.1,0-2,.9-2,2v16.7c0,1.1.9,2,2,2h11.8Z"/>
  <rect class="st0" x="62.1" y="34.5" width="6.9" height="6.9" rx="2" ry="2"/>
  <path class="st0" d="M13.8,48.3h32.5c1.1,0,2-.9,2-2V2c0-1.1-.9-2-2-2H2C.9,0,0,.9,0,2v44.3c0,1.1.9,2,2,2h11.8ZM6.9,34.5V8.9c0-1.1.9-2,2-2h30.5c1.1,0,2,.9,2,2v30.5c0,1.1-.9,2-2,2H8.9c-1.1,0-2-.9-2-2v-4.9Z"/>
  <path class="st0" d="M110.3,48.3v4.9c0,1.1-.9,2-2,2h-2.9c-1.1,0-2,.9-2,2v2.9c0,1.1.9,2,2,2h2.9c1.1,0,2,.9,2,2v2.9c0,1.1.9,2,2,2h2.9c1.1,0,2-.9,2-2v-2.9c0-1.1.9-2,2-2h2.9c1.1,0,2-.9,2-2v-2.9c0-1.1.9-2,2-2h2.9c1.1,0,2,.9,2,2v2.9c0,1.1.9,2,2,2h2.9c1.1,0,2,.9,2,2v2.9c0,1.1.9,2,2,2h16.7c1.1,0,2-.9,2-2v-9.8c0-1.1-.9-2-2-2h-9.8c-1.1,0-2-.9-2-2v-23.6c0-1.1-.9-2-2-2h-9.8c-1.1,0-2-.9-2-2v-2.9c0-1.1-.9-2-2-2h-2.9c-1.1,0-2,.9-2,2v2.9c0,1.1-.9,2-2,2h-2.9c-1.1,0-2,.9-2,2v2.9c0,1.1.9,2,2,2h2.9c1.1,0,2,.9,2,2v9.8c0,1.1-.9,2-2,2h-2.9c-1.1,0-2-.9-2-2v-9.8c0-1.1-.9-2-2-2h-2.9c-1.1,0-2-.9-2-2v-2.9c0-1.1.9-2,2-2h2.9c1.1,0,2-.9,2-2v-9.8c0-1.1-.9-2-2-2h-2.9c-1.1,0-2-.9-2-2v-2.9c0-1.1-.9-2-2-2h-2.9c-1.1,0-2,.9-2,2v2.9c0,1.1-.9,2-2,2h-2.9c-1.1,0-2,.9-2,2v2.9c0,1.1.9,2,2,2h2.9c1.1,0,2,.9,2,2v16.7c0,1.1.9,2,2,2h2.9c1.1,0,2,.9,2,2v4.9ZM133,41.4h2.9c1.1,0,2,.9,2,2v2.9c0,1.1-.9,2-2,2h-2.9c-1.1,0-2-.9-2-2v-2.9c0-1.1.9-2,2-2Z"/>
  <rect class="st0" x="179.3" y="55.2" width="6.9" height="6.9" rx="2" ry="2"/>
  <rect class="st0" x="172.4" y="62.1" width="6.9" height="6.9" rx="2" ry="2"/>
  <path class="st0" d="M193.1,67c0,1.1-.9,2-2,2h-9.8c-1.1,0-2,.9-2,2v2.9c0,1.1.9,2,2,2h2.9c1.1,0,2,.9,2,2v9.8c0,1.1.9,2,2,2h2.9c1.1,0,2,.9,2,2v2.9c0,1.1-.9,2-2,2h-2.9c-1.1,0-2,.9-2,2v16.7c0,1.1.9,2,2,2h2.9c1.1,0,2,.9,2,2v2.9c0,1.1-.9,2-2,2h-2.9c-1.1,0-2,.9-2,2v9.8c0,1.1.9,2,2,2h2.9c1.1,0,2-.9,2-2v-2.9c0-1.1.9-2,2-2h2.9c1.1,0,2-.9,2-2v-16.7c0-1.1-.9-2-2-2h-2.9c-1.1,0-2-.9-2-2v-2.9c0-1.1.9-2,2-2h2.9c1.1,0,2-.9,2-2v-16.7c0-1.1-.9-2-2-2h-2.9c-1.1,0-2-.9-2-2v-2.9c0-1.1.9-2,2-2h2.9c1.1,0,2-.9,2-2v-9.8c0-1.1-.9-2-2-2h-2.9c-1.1,0-2,.9-2,2v2.9Z"/>
  <rect class="st0" x="62.1" y="69" width="6.9" height="6.9" rx="2" ry="2"/>
  <path class="st0" d="M13.8,80.8c0,1.1.9,2,2,2h9.8c1.1,0,2-.9,2-2v-2.9c0-1.1.9-2,2-2h2.9c1.1,0,2-.9,2-2v-2.9c0-1.1.9-2,2-2h2.9c1.1,0,2-.9,2-2v-2.9c0-1.1.9-2,2-2h2.9c1.1,0,2,.9,2,2v2.9c0,1.1-.9,2-2,2h-2.9c-1.1,0-2,.9-2,2v2.9c0,1.1.9,2,2,2h9.8c1.1,0,2-.9,2-2v-9.8c0-1.1.9-2,2-2h2.9c1.1,0,2-.9,2-2v-2.9c0-1.1.9-2,2-2h2.9c1.1,0,2,.9,2,2v2.9c0,1.1.9,2,2,2h2.9c1.1,0,2-.9,2-2v-2.9c0-1.1.9-2,2-2h2.9c1.1,0,2,.9,2,2v16.7c0,1.1-.9,2-2,2h-2.9c-1.1,0-2,.9-2,2v2.9c0,1.1.9,2,2,2h2.9c1.1,0,2,.9,2,2v23.6c0,1.1-.9,2-2,2h-2.9c-1.1,0-2,.9-2,2v2.9c0,1.1.9,2,2,2h2.9c1.1,0,2,.9,2,2v2.9c0,1.1.9,2,2,2h2.9c1.1,0,2-.9,2-2v-2.9c0-1.1.9-2,2-2h2.9c1.1,0,2,.9,2,2v2.9c0,1.1.9,2,2,2h23.6c1.1,0,2,.9,2,2v2.9c0,1.1.9,2,2,2h2.9c1.1,0,2-.9,2-2v-9.8c0-1.1-.9-2-2-2h-2.9c-1.1,0-2-.9-2-2v-2.9c0-1.1.9-2,2-2h2.9c1.1,0,2-.9,2-2v-2.9c0-1.1-.9-2-2-2h-2.9c-1.1,0-2-.9-2-2v-2.9c0-1.1-.9-2-2-2h-2.9c-1.1,0-2,.9-2,2v9.8c0,1.1-.9,2-2,2h-9.8c-1.1,0-2-.9-2-2v-2.9c0-1.1-.9-2-2-2h-2.9c-1.1,0-2-.9-2-2v-2.9c0-1.1-.9-2-2-2h-2.9c-1.1,0-2-.9-2-2v-2.9c0-1.1.9-2,2-2h9.8c1.1,0,2-.9,2-2v-2.9c0-1.1-.9-2-2-2h-2.9c-1.1,0-2-.9-2-2v-2.9c0-1.1-.9-2-2-2h-2.9c-1.1,0-2-.9-2-2v-2.9c0-1.1.9-2,2-2h9.8c1.1,0,2-.9,2-2v-2.9c0-1.1-.9-2-2-2h-2.9c-1.1,0-2-.9-2-2v-2.9c0-1.1.9-2,2-2h2.9c1.1,0,2-.9,2-2v-9.8c0-1.1-.9-2-2-2h-2.9c-1.1,0-2,.9-2,2v2.9c0,1.1-.9,2-2,2h-2.9c-1.1,0-2-.9-2-2v-9.8c0-1.1-.9-2-2-2h-2.9c-1.1,0-2-.9-2-2v-2.9c0-1.1-.9-2-2-2h-2.9c-1.1,0-2,.9-2,2v9.8c0,1.1.9,2,2,2h2.9c1.1,0,2,.9,2,2v2.9c0,1.1-.9,2-2,2h-2.9c-1.1,0-2-.9-2-2v-2.9c0-1.1-.9-2-2-2h-2.9c-1.1,0-2,.9-2,2v2.9c0,1.1-.9,2-2,2h-2.9c-1.1,0-2-.9-2-2v-2.9c0-1.1-.9-2-2-2h-2.9c-1.1,0-2,.9-2,2v9.8c0,1.1-.9,2-2,2h-23.6c-1.1,0-2,.9-2,2v9.8c0,1.1-.9,2-2,2h-2.9c-1.1,0-2-.9-2-2v-9.8c0-1.1-.9-2-2-2H2c-1.1,0-2,.9-2,2v9.8c0,1.1.9,2,2,2h2.9c1.1,0,2,.9,2,2v2.9c0,1.1.9,2,2,2h2.9c1.1,0,2,.9,2,2v2.9Z"/>
  <rect class="st0" x="165.5" y="75.9" width="6.9" height="6.9" rx="2" ry="2"/>
  <path class="st0" d="M48.3,89.7h4.9c1.1,0,2,.9,2,2v2.9c0,1.1.9,2,2,2h9.8c1.1,0,2-.9,2-2v-2.9c0-1.1-.9-2-2-2h-2.9c-1.1,0-2-.9-2-2v-2.9c0-1.1-.9-2-2-2h-16.7c-1.1,0-2-.9-2-2v-2.9c0-1.1-.9-2-2-2h-2.9c-1.1,0-2,.9-2,2v16.7c0,1.1.9,2,2,2h2.9c1.1,0,2-.9,2-2v-2.9c0-1.1.9-2,2-2h4.9Z"/>
  <path class="st0" d="M110.3,96.6h4.9c1.1,0,2-.9,2-2v-2.9c0-1.1.9-2,2-2h9.8c1.1,0,2-.9,2-2v-2.9c0-1.1.9-2,2-2h2.9c1.1,0,2-.9,2-2v-2.9c0-1.1-.9-2-2-2h-16.7c-1.1,0-2,.9-2,2v2.9c0,1.1-.9,2-2,2h-2.9c-1.1,0-2,.9-2,2v2.9c0,1.1-.9,2-2,2h-2.9c-1.1,0-2,.9-2,2v2.9c0,1.1.9,2,2,2h4.9Z"/>
  <rect class="st0" x="41.4" y="96.6" width="6.9" height="6.9" rx="2" ry="2"/>
  <path class="st0" d="M34.5,110.3h4.9c1.1,0,2-.9,2-2v-2.9c0-1.1-.9-2-2-2h-9.8c-1.1,0-2-.9-2-2v-9.8c0-1.1-.9-2-2-2H8.9c-1.1,0-2-.9-2-2v-9.8c0-1.1-.9-2-2-2h-2.9c-1.1,0-2,.9-2,2v16.7c0,1.1.9,2,2,2h2.9c1.1,0,2,.9,2,2v2.9c0,1.1.9,2,2,2h2.9c1.1,0,2,.9,2,2v2.9c0,1.1-.9,2-2,2h-2.9c-1.1,0-2,.9-2,2v9.8c0,1.1.9,2,2,2h2.9c1.1,0,2,.9,2,2v2.9c0,1.1.9,2,2,2h2.9c1.1,0,2-.9,2-2v-9.8c0-1.1.9-2,2-2h2.9c1.1,0,2-.9,2-2v-2.9c0-1.1.9-2,2-2h4.9Z"/>
  <rect class="st0" x="48.3" y="103.4" width="6.9" height="6.9" rx="2" ry="2"/>
  <path class="st0" d="M69,103.4h-4.9c-1.1,0-2,.9-2,2v2.9c0,1.1.9,2,2,2h9.8c1.1,0,2-.9,2-2v-2.9c0-1.1-.9-2-2-2h-4.9Z"/>
  <rect class="st0" x="41.4" y="110.3" width="6.9" height="6.9" rx="2" ry="2"/>
  <rect class="st0" x="55.2" y="110.3" width="6.9" height="6.9" rx="2" ry="2"/>
  <path class="st0" d="M34.5,117.2h-4.9c-1.1,0-2,.9-2,2v9.8c0,1.1.9,2,2,2h2.9c1.1,0,2-.9,2-2v-2.9c0-1.1.9-2,2-2h2.9c1.1,0,2-.9,2-2v-2.9c0-1.1-.9-2-2-2h-4.9Z"/>
  <path class="st0" d="M53.2,117.2h-2.9c-1.1,0-2,.9-2,2v2.9c0,1.1-.9,2-2,2h-2.9c-1.1,0-2,.9-2,2v2.9c0,1.1.9,2,2,2h9.8c1.1,0,2-.9,2-2v-9.8c0-1.1-.9-2-2-2Z"/>
  <rect class="st0" x="62.1" y="117.2" width="6.9" height="6.9" rx="2" ry="2"/>
  <rect class="st0" x="137.9" y="117.2" width="6.9" height="6.9" rx="2" ry="2"/>
  <path class="st0" d="M181.3,117.2c-1.1,0-2-.9-2-2v-30.5c0-1.1-.9-2-2-2h-2.9c-1.1,0-2,.9-2,2v37.4c0,1.1.9,2,2,2h9.8c1.1,0,2-.9,2-2v-2.9c0-1.1-.9-2-2-2h-2.9Z"/>
  <rect class="st0" y="124.1" width="6.9" height="6.9" rx="2" ry="2"/>
  <rect class="st0" x="69" y="124.1" width="6.9" height="6.9" rx="2" ry="2"/>
  <rect class="st0" x="6.9" y="131" width="6.9" height="6.9" rx="2" ry="2"/>
  <rect class="st0" x="55.2" y="131" width="6.9" height="6.9" rx="2" ry="2"/>
  <rect class="st0" x="172.4" y="131" width="6.9" height="6.9" rx="2" ry="2"/>
  <rect class="st0" y="137.9" width="6.9" height="6.9" rx="2" ry="2"/>
  <rect class="st0" x="13.8" y="137.9" width="6.9" height="6.9" rx="2" ry="2"/>
  <path class="st0" d="M34.5,139.9v2.9c0,1.1.9,2,2,2h9.8c1.1,0,2-.9,2-2v-2.9c0-1.1-.9-2-2-2h-9.8c-1.1,0-2,.9-2,2Z"/>
  <path class="st0" d="M124.1,135.9v-2.9c0-1.1-.9-2-2-2h-2.9c-1.1,0-2,.9-2,2v9.8c0,1.1.9,2,2,2h9.8c1.1,0,2-.9,2-2v-2.9c0-1.1-.9-2-2-2h-2.9c-1.1,0-2-.9-2-2Z"/>
  <path class="st0" d="M110.3,144.8h-4.9c-1.1,0-2,.9-2,2v2.9c0,1.1.9,2,2,2h9.8c1.1,0,2-.9,2-2v-2.9c0-1.1-.9-2-2-2h-4.9Z"/>
  <path class="st0" d="M186.2,144.8h-4.9c-1.1,0-2,.9-2,2v2.9c0,1.1.9,2,2,2h2.9c1.1,0,2,.9,2,2v16.7c0,1.1.9,2,2,2h2.9c1.1,0,2,.9,2,2v9.8c0,1.1.9,2,2,2h2.9c1.1,0,2-.9,2-2v-16.7c0-1.1-.9-2-2-2h-2.9c-1.1,0-2-.9-2-2v-2.9c0-1.1.9-2,2-2h2.9c1.1,0,2-.9,2-2v-9.8c0-1.1-.9-2-2-2h-11.8Z"/>
  <path class="st0" d="M34.5,151.7H2c-1.1,0-2,.9-2,2v44.3c0,1.1.9,2,2,2h44.3c1.1,0,2-.9,2-2v-44.3c0-1.1-.9-2-2-2h-11.8ZM41.4,165.5v25.6c0,1.1-.9,2-2,2H8.9c-1.1,0-2-.9-2-2v-30.5c0-1.1.9-2,2-2h30.5c1.1,0,2,.9,2,2v4.9Z"/>
  <path class="st0" d="M96.6,156.6c0,1.1-.9,2-2,2h-9.8c-1.1,0-2,.9-2,2v2.9c0,1.1.9,2,2,2h2.9c1.1,0,2,.9,2,2v2.9c0,1.1.9,2,2,2h2.9c1.1,0,2-.9,2-2v-2.9c0-1.1.9-2,2-2h2.9c1.1,0,2-.9,2-2v-9.8c0-1.1-.9-2-2-2h-2.9c-1.1,0-2,.9-2,2v2.9Z"/>
  <path class="st0" d="M122.1,151.7h-2.9c-1.1,0-2,.9-2,2v2.9c0,1.1-.9,2-2,2h-2.9c-1.1,0-2,.9-2,2v9.8c0,1.1-.9,2-2,2h-2.9c-1.1,0-2,.9-2,2v2.9c0,1.1.9,2,2,2h2.9c1.1,0,2,.9,2,2v2.9c0,1.1.9,2,2,2h2.9c1.1,0,2,.9,2,2v9.8c0,1.1.9,2,2,2h23.6c1.1,0,2-.9,2-2v-9.8c0-1.1.9-2,2-2h2.9c1.1,0,2-.9,2-2v-2.9c0-1.1-.9-2-2-2h-9.8c-1.1,0-2,.9-2,2v2.9c0,1.1-.9,2-2,2h-2.9c-1.1,0-2-.9-2-2v-2.9c0-1.1-.9-2-2-2h-2.9c-1.1,0-2-.9-2-2v-2.9c0-1.1-.9-2-2-2h-2.9c-1.1,0-2-.9-2-2v-2.9c0-1.1.9-2,2-2h9.8c1.1,0,2-.9,2-2v-2.9c0-1.1-.9-2-2-2h-2.9c-1.1,0-2-.9-2-2v-2.9c0-1.1-.9-2-2-2Z"/>
  <rect class="st0" x="151.7" y="151.7" width="6.9" height="6.9" rx="2" ry="2"/>
  <path class="st0" d="M69,163.5v-2.9c0-1.1.9-2,2-2h2.9c1.1,0,2-.9,2-2v-9.8c0-1.1.9-2,2-2h2.9c1.1,0,2,.9,2,2v2.9c0,1.1.9,2,2,2h2.9c1.1,0,2-.9,2-2v-2.9c0-1.1.9-2,2-2h2.9c1.1,0,2-.9,2-2v-2.9c0-1.1.9-2,2-2h2.9c1.1,0,2-.9,2-2v-2.9c0-1.1-.9-2-2-2h-2.9c-1.1,0-2-.9-2-2v-2.9c0-1.1-.9-2-2-2h-2.9c-1.1,0-2,.9-2,2v9.8c0,1.1-.9,2-2,2h-2.9c-1.1,0-2-.9-2-2v-2.9c0-1.1-.9-2-2-2h-2.9c-1.1,0-2,.9-2,2v2.9c0,1.1-.9,2-2,2h-9.8c-1.1,0-2,.9-2,2v2.9c0,1.1.9,2,2,2h2.9c1.1,0,2,.9,2,2v2.9c0,1.1-.9,2-2,2h-2.9c-1.1,0-2-.9-2-2v-2.9c0-1.1-.9-2-2-2h-2.9c-1.1,0-2,.9-2,2v23.6c0,1.1.9,2,2,2h2.9c1.1,0,2-.9,2-2v-2.9c0-1.1.9-2,2-2h2.9c1.1,0,2-.9,2-2Z"/>
  <path class="st0" d="M20.7,165.5h-4.9c-1.1,0-2,.9-2,2v16.7c0,1.1.9,2,2,2h16.7c1.1,0,2-.9,2-2v-16.7c0-1.1-.9-2-2-2h-11.8Z"/>
  <path class="st0" d="M82.8,167.5c0-1.1-.9-2-2-2h-9.8c-1.1,0-2,.9-2,2v2.9c0,1.1.9,2,2,2h2.9c1.1,0,2,.9,2,2v2.9c0,1.1.9,2,2,2h9.8c1.1,0,2-.9,2-2v-2.9c0-1.1-.9-2-2-2h-2.9c-1.1,0-2-.9-2-2v-2.9Z"/>
  <path class="st0" d="M60.1,179.3h-2.9c-1.1,0-2,.9-2,2v16.7c0,1.1.9,2,2,2h9.8c1.1,0,2-.9,2-2v-2.9c0-1.1.9-2,2-2h2.9c1.1,0,2-.9,2-2v-2.9c0-1.1-.9-2-2-2h-2.9c-1.1,0-2-.9-2-2v-9.8c0-1.1-.9-2-2-2h-2.9c-1.1,0-2,.9-2,2v2.9c0,1.1-.9,2-2,2Z"/>
  <path class="st0" d="M172.4,172.4v-4.9c0-1.1.9-2,2-2h2.9c1.1,0,2-.9,2-2v-9.8c0-1.1-.9-2-2-2h-2.9c-1.1,0-2-.9-2-2v-9.8c0-1.1-.9-2-2-2h-9.8c-1.1,0-2-.9-2-2v-2.9c0-1.1.9-2,2-2h2.9c1.1,0,2-.9,2-2v-2.9c0-1.1-.9-2-2-2h-2.9c-1.1,0-2-.9-2-2v-2.9c0-1.1.9-2,2-2h2.9c1.1,0,2-.9,2-2v-2.9c0-1.1-.9-2-2-2h-2.9c-1.1,0-2-.9-2-2v-2.9c0-1.1-.9-2-2-2h-2.9c-1.1,0-2-.9-2-2v-2.9c0-1.1.9-2,2-2h2.9c1.1,0,2,.9,2,2v2.9c0,1.1.9,2,2,2h2.9c1.1,0,2-.9,2-2v-9.8c0-1.1-.9-2-2-2h-2.9c-1.1,0-2-.9-2-2v-2.9c0-1.1-.9-2-2-2h-16.7c-1.1,0-2,.9-2,2v16.7c0,1.1.9,2,2,2h2.9c1.1,0,2,.9,2,2v9.8c0,1.1.9,2,2,2h2.9c1.1,0,2,.9,2,2v16.7c0,1.1-.9,2-2,2h-2.9c-1.1,0-2-.9-2-2v-2.9c0-1.1-.9-2-2-2h-2.9c-1.1,0-2,.9-2,2v9.8c0,1.1-.9,2-2,2h-2.9c-1.1,0-2,.9-2,2v9.8c0,1.1.9,2,2,2h2.9c1.1,0,2,.9,2,2v9.8c0,1.1.9,2,2,2h23.6c1.1,0,2,.9,2,2v2.9c0,1.1-.9,2-2,2h-2.9c-1.1,0-2,.9-2,2v2.9c0,1.1.9,2,2,2h2.9c1.1,0,2,.9,2,2v2.9c0,1.1-.9,2-2,2h-9.8c-1.1,0-2,.9-2,2v2.9c0,1.1.9,2,2,2h23.6c1.1,0,2-.9,2-2v-2.9c0-1.1-.9-2-2-2h-2.9c-1.1,0-2-.9-2-2v-2.9c0-1.1.9-2,2-2h2.9c1.1,0,2-.9,2-2v-2.9c0-1.1-.9-2-2-2h-2.9c-1.1,0-2-.9-2-2v-4.9ZM158.6,165.5h-11.8c-1.1,0-2-.9-2-2v-16.7c0-1.1.9-2,2-2h16.7c1.1,0,2,.9,2,2v16.7c0,1.1-.9,2-2,2h-4.9Z"/>
  <rect class="st0" x="179.3" y="172.4" width="6.9" height="6.9" rx="2" ry="2"/>
  <path class="st0" d="M89.7,186.2h-4.9c-1.1,0-2,.9-2,2v9.8c0,1.1.9,2,2,2h9.8c1.1,0,2-.9,2-2v-2.9c0-1.1.9-2,2-2h2.9c1.1,0,2-.9,2-2v-2.9c0-1.1-.9-2-2-2h-11.8Z"/>
  <path class="st0" d="M186.2,193.1v4.9c0,1.1.9,2,2,2h9.8c1.1,0,2-.9,2-2v-2.9c0-1.1-.9-2-2-2h-2.9c-1.1,0-2-.9-2-2v-2.9c0-1.1-.9-2-2-2h-2.9c-1.1,0-2,.9-2,2v4.9Z"/>
</svg>